P3
128 40
255
0 0 0
255 255 255
100 100 100
50 50 50
0 0 0
255 255 255
100 100 100
50 50 50
0 0 0
255 255 255
100 100 100
50 50 50
0 0 0
255 255 255
100 100 100
50 50 50
0 0 0
255 255 255
100 100 100
50 50 50
0 0 0
255 255 255
100 100 100
50 50 50
0 0 0
255 255 255
100 100 100
50 50 50
0 0 0
255 255 255
100 100 100
50 50 50
0 0 0
255 255 255
100 100 100
50 50 50
0 0 0
255 255 255
100 100 100
50 50 50
0 0 0
255 255 255
100 100 100
50 50 50
0 0 0
255 255 255
100 100 100
50 50 50
0 0 0
255 255 255
100 100 100
50 50 50
0 0 0
255 255 255
100 100 100
50 50 50
0 0 0
255 255 255
100 100 100
50 50 50
0 0 0
255 255 255
100 100 100
50 50 50
0 0 0
255 255 255
100 100 100
50 50 50
0 0 0
255 255 255
100 100 100
50 50 50
0 0 0
255 255 255
100 100 100
50 50 50
0 0 0
255 255 255
100 100 100
50 50 50
0 0 0
255 255 255
100 100 100
50 50 50
0 0 0
255 255 255
100 100 100
50 50 50
0 0 0
255 255 255
100 100 100
50 50 50
0 0 0
255 255 255
100 100 100
50 50 50
0 0 0
255 255 255
100 100 100
50 50 50
0 0 0
255 255 255
100 100 100
50 50 50
0 0 0
255 255 255
100 100 100
50 50 50
0 0 0
255 255 255
100 100 100
50 50 50
0 0 0
255 255 255
100 100 100
50 50 50
0 0 0
255 255 255
100 100 100
50 50 50
0 0 0
255 255 255
100 100 100
50 50 50
0 0 0
255 255 255
100 100 100
50 50 50
0 0 0
255 255 255
100 100 100
50 50 50
0 0 0
255 255 255
100 100 100
50 50 50
0 0 0
255 255 255
100 100 100
50 50 50
0 0 0
255 255 255
100 100 100
50 50 50
0 0 0
255 255 255
100 100 100
50 50 50
0 0 0
255 255 255
100 100 100
50 50 50
0 0 0
255 255 255
100 100 100
50 50 50
0 0 0
255 255 255
100 100 100
50 50 50
0 0 0
255 255 255
100 100 100
50 50 50
0 0 0
255 255 255
100 100 100
50 50 50
0 0 0
255 255 255
100 100 100
50 50 50
0 0 0
255 255 255
100 100 100
50 50 50
0 0 0
255 255 255
100 100 100
50 50 50
0 0 0
255 255 255
100 100 100
50 50 50
0 0 0
255 255 255
100 100 100
50 50 50
0 0 0
255 255 255
100 100 100
50 50 50
0 0 0
255 255 255
100 100 100
50 50 50
0 0 0
255 255 255
100 100 100
50 50 50
0 0 0
255 255 255
100 100 100
50 50 50
0 0 0
255 255 255
100 100 100
50 50 50
0 0 0
255 255 255
100 100 100
50 50 50
0 0 0
255 255 255
100 100 100
50 50 50
0 0 0
255 255 255
100 100 100
50 50 50
0 0 0
255 255 255
100 100 100
50 50 50
0 0 0
255 255 255
100 100 100
50 50 50
0 0 0
255 255 255
100 100 100
50 50 50
0 0 0
255 255 255
100 100 100
50 50 50
0 0 0
255 255 255
100 100 100
50 50 50
0 0 0
255 255 255
100 100 100
50 50 50
0 0 0
255 255 255
100 100 100
50 50 50
0 0 0
255 255 255
100 100 100
50 50 50
0 0 0
255 255 255
100 100 100
50 50 50
0 0 0
255 255 255
100 100 100
50 50 50
0 0 0
255 255 255
100 100 100
50 50 50
0 0 0
255 255 255
100 100 100
50 50 50
0 0 0
255 255 255
100 100 100
50 50 50
0 0 0
255 255 255
100 100 100
50 50 50
0 0 0
255 255 255
100 100 100
50 50 50
0 0 0
255 255 255
100 100 100
50 50 50
0 0 0
255 255 255
100 100 100
50 50 50
0 0 0
255 255 255
100 100 100
50 50 50
0 0 0
255 255 255
100 100 100
50 50 50
0 0 0
255 255 255
100 100 100
50 50 50
0 0 0
255 255 255
100 100 100
50 50 50
0 0 0
255 255 255
100 100 100
50 50 50
0 0 0
255 255 255
100 100 100
50 50 50
0 0 0
255 255 255
100 100 100
50 50 50
0 0 0
255 255 255
100 100 100
50 50 50
0 0 0
255 255 255
100 100 100
50 50 50
0 0 0
255 255 255
100 100 100
50 50 50
0 0 0
255 255 255
100 100 100
50 50 50
0 0 0
255 255 255
100 100 100
50 50 50
0 0 0
255 255 255
100 100 100
50 50 50
0 0 0
255 255 255
100 100 100
50 50 50
0 0 0
255 255 255
100 100 100
50 50 50
0 0 0
255 255 255
100 100 100
50 50 50
0 0 0
255 255 255
100 100 100
50 50 50
0 0 0
255 255 255
100 100 100
50 50 50
0 0 0
255 255 255
100 100 100
50 50 50
0 0 0
255 255 255
100 100 100
50 50 50
0 0 0
255 255 255
100 100 100
50 50 50
0 0 0
255 255 255
100 100 100
50 50 50
0 0 0
255 255 255
100 100 100
50 50 50
0 0 0
255 255 255
100 100 100
50 50 50
0 0 0
255 255 255
100 100 100
50 50 50
0 0 0
255 255 255
100 100 100
50 50 50
0 0 0
255 255 255
100 100 100
50 50 50
0 0 0
255 255 255
100 100 100
50 50 50
0 0 0
255 255 255
100 100 100
50 50 50
0 0 0
255 255 255
100 100 100
50 50 50
0 0 0
255 255 255
100 100 100
50 50 50
0 0 0
255 255 255
100 100 100
50 50 50
0 0 0
255 255 255
100 100 100
50 50 50
0 0 0
255 255 255
100 100 100
50 50 50
0 0 0
255 255 255
100 100 100
50 50 50
0 0 0
255 255 255
100 100 100
50 50 50
0 0 0
255 255 255
100 100 100
50 50 50
0 0 0
255 255 255
100 100 100
50 50 50
0 0 0
255 255 255
100 100 100
50 50 50
0 0 0
255 255 255
100 100 100
50 50 50
0 0 0
255 255 255
100 100 100
50 50 50
0 0 0
255 255 255
100 100 100
50 50 50
0 0 0
255 255 255
100 100 100
50 50 50
0 0 0
255 255 255
100 100 100
50 50 50
0 0 0
255 255 255
100 100 100
50 50 50
0 0 0
255 255 255
100 100 100
50 50 50
0 0 0
255 255 255
100 100 100
50 50 50
0 0 0
255 255 255
100 100 100
50 50 50
0 0 0
255 255 255
100 100 100
50 50 50
0 0 0
255 255 255
100 100 100
50 50 50
0 0 0
255 255 255
100 100 100
50 50 50
0 0 0
255 255 255
100 100 100
50 50 50
0 0 0
255 255 255
100 100 100
50 50 50
0 0 0
255 255 255
100 100 100
50 50 50
0 0 0
255 255 255
100 100 100
50 50 50
0 0 0
255 255 255
100 100 100
50 50 50
0 0 0
255 255 255
100 100 100
50 50 50
0 0 0
255 255 255
100 100 100
50 50 50
0 0 0
255 255 255
100 100 100
50 50 50
0 0 0
255 255 255
100 100 100
50 50 50
0 0 0
255 255 255
100 100 100
50 50 50
0 0 0
255 255 255
100 100 100
50 50 50
0 0 0
255 255 255
100 100 100
50 50 50
0 0 0
255 255 255
100 100 100
50 50 50
0 0 0
255 255 255
100 100 100
50 50 50
0 0 0
255 255 255
100 100 100
50 50 50
0 0 0
255 255 255
100 100 100
50 50 50
0 0 0
255 255 255
100 100 100
50 50 50
0 0 0
255 255 255
100 100 100
50 50 50
0 0 0
255 255 255
100 100 100
50 50 50
0 0 0
255 255 255
100 100 100
50 50 50
0 0 0
255 255 255
100 100 100
50 50 50
0 0 0
255 255 255
100 100 100
50 50 50
0 0 0
255 255 255
100 100 100
50 50 50
0 0 0
255 255 255
100 100 100
50 50 50
0 0 0
255 255 255
100 100 100
50 50 50
0 0 0
255 255 255
100 100 100
50 50 50
0 0 0
255 255 255
100 100 100
50 50 50
0 0 0
255 255 255
100 100 100
50 50 50
0 0 0
255 255 255
100 100 100
50 50 50
0 0 0
255 255 255
100 100 100
50 50 50
0 0 0
255 255 255
100 100 100
50 50 50
0 0 0
255 255 255
100 100 100
50 50 50
0 0 0
255 255 255
100 100 100
50 50 50
0 0 0
255 255 255
100 100 100
50 50 50
0 0 0
255 255 255
100 100 100
50 50 50
0 0 0
255 255 255
100 100 100
50 50 50
0 0 0
255 255 255
100 100 100
50 50 50
0 0 0
255 255 255
100 100 100
50 50 50
0 0 0
255 255 255
100 100 100
50 50 50
0 0 0
255 255 255
100 100 100
50 50 50
0 0 0
255 255 255
100 100 100
50 50 50
0 0 0
255 255 255
100 100 100
50 50 50
0 0 0
255 255 255
100 100 100
50 50 50
0 0 0
255 255 255
100 100 100
50 50 50
0 0 0
255 255 255
100 100 100
50 50 50
0 0 0
255 255 255
100 100 100
50 50 50
0 0 0
255 255 255
100 100 100
50 50 50
0 0 0
255 255 255
100 100 100
50 50 50
0 0 0
255 255 255
100 100 100
50 50 50
0 0 0
255 255 255
100 100 100
50 50 50
0 0 0
255 255 255
100 100 100
50 50 50
0 0 0
255 255 255
100 100 100
50 50 50
0 0 0
255 255 255
100 100 100
50 50 50
0 0 0
255 255 255
100 100 100
50 50 50
0 0 0
255 255 255
100 100 100
50 50 50
0 0 0
255 255 255
100 100 100
50 50 50
0 0 0
255 255 255
100 100 100
50 50 50
0 0 0
255 255 255
100 100 100
50 50 50
0 0 0
255 255 255
100 100 100
50 50 50
0 0 0
255 255 255
100 100 100
50 50 50
0 0 0
255 255 255
100 100 100
50 50 50
0 0 0
255 255 255
100 100 100
50 50 50
0 0 0
255 255 255
100 100 100
50 50 50
0 0 0
255 255 255
100 100 100
50 50 50
0 0 0
255 255 255
100 100 100
50 50 50
0 0 0
255 255 255
100 100 100
50 50 50
0 0 0
255 255 255
100 100 100
50 50 50
0 0 0
255 255 255
100 100 100
50 50 50
0 0 0
255 255 255
100 100 100
50 50 50
0 0 0
255 255 255
100 100 100
50 50 50
0 0 0
255 255 255
100 100 100
50 50 50
0 0 0
255 255 255
100 100 100
50 50 50
0 0 0
255 255 255
100 100 100
50 50 50
0 0 0
255 255 255
100 100 100
50 50 50
0 0 0
255 255 255
100 100 100
50 50 50
0 0 0
255 255 255
100 100 100
50 50 50
0 0 0
255 255 255
100 100 100
50 50 50
0 0 0
255 255 255
100 100 100
50 50 50
0 0 0
255 255 255
100 100 100
50 50 50
0 0 0
255 255 255
100 100 100
50 50 50
0 0 0
255 255 255
100 100 100
50 50 50
0 0 0
255 255 255
100 100 100
50 50 50
0 0 0
255 255 255
100 100 100
50 50 50
0 0 0
255 255 255
100 100 100
50 50 50
0 0 0
255 255 255
100 100 100
50 50 50
0 0 0
255 255 255
100 100 100
50 50 50
0 0 0
255 255 255
100 100 100
50 50 50
0 0 0
255 255 255
100 100 100
50 50 50
0 0 0
255 255 255
100 100 100
50 50 50
0 0 0
255 255 255
100 100 100
50 50 50
0 0 0
255 255 255
100 100 100
50 50 50
0 0 0
255 255 255
100 100 100
50 50 50
0 0 0
255 255 255
100 100 100
50 50 50
0 0 0
255 255 255
100 100 100
50 50 50
0 0 0
255 255 255
100 100 100
50 50 50
0 0 0
255 255 255
100 100 100
50 50 50
0 0 0
255 255 255
100 100 100
50 50 50
0 0 0
255 255 255
100 100 100
50 50 50
0 0 0
255 255 255
100 100 100
50 50 50
0 0 0
255 255 255
100 100 100
50 50 50
0 0 0
255 255 255
100 100 100
50 50 50
0 0 0
255 255 255
100 100 100
50 50 50
0 0 0
255 255 255
100 100 100
50 50 50
0 0 0
255 255 255
100 100 100
50 50 50
0 0 0
255 255 255
100 100 100
50 50 50
0 0 0
255 255 255
100 100 100
50 50 50
0 0 0
255 255 255
100 100 100
50 50 50
0 0 0
255 255 255
100 100 100
50 50 50
0 0 0
255 255 255
100 100 100
50 50 50
0 0 0
255 255 255
100 100 100
50 50 50
0 0 0
255 255 255
100 100 100
50 50 50
0 0 0
255 255 255
100 100 100
50 50 50
0 0 0
255 255 255
100 100 100
50 50 50
0 0 0
255 255 255
100 100 100
50 50 50
0 0 0
255 255 255
100 100 100
50 50 50
0 0 0
255 255 255
100 100 100
50 50 50
0 0 0
255 255 255
100 100 100
50 50 50
0 0 0
255 255 255
100 100 100
50 50 50
0 0 0
255 255 255
100 100 100
50 50 50
0 0 0
255 255 255
100 100 100
50 50 50
0 0 0
255 255 255
100 100 100
50 50 50
0 0 0
255 255 255
100 100 100
50 50 50
0 0 0
255 255 255
100 100 100
50 50 50
0 0 0
255 255 255
100 100 100
50 50 50
0 0 0
255 255 255
100 100 100
50 50 50
0 0 0
255 255 255
100 100 100
50 50 50
0 0 0
255 255 255
100 100 100
50 50 50
0 0 0
255 255 255
100 100 100
50 50 50
0 0 0
255 255 255
100 100 100
50 50 50
0 0 0
255 255 255
100 100 100
50 50 50
0 0 0
255 255 255
100 100 100
50 50 50
0 0 0
255 255 255
100 100 100
50 50 50
0 0 0
255 255 255
100 100 100
50 50 50
0 0 0
255 255 255
100 100 100
50 50 50
0 0 0
255 255 255
100 100 100
50 50 50
0 0 0
255 255 255
100 100 100
50 50 50
0 0 0
255 255 255
100 100 100
50 50 50
0 0 0
255 255 255
100 100 100
50 50 50
0 0 0
255 255 255
100 100 100
50 50 50
0 0 0
255 255 255
100 100 100
50 50 50
0 0 0
255 255 255
100 100 100
50 50 50
0 0 0
255 255 255
100 100 100
50 50 50
0 0 0
255 255 255
100 100 100
50 50 50
0 0 0
255 255 255
100 100 100
50 50 50
0 0 0
255 255 255
100 100 100
50 50 50
0 0 0
255 255 255
100 100 100
50 50 50
0 0 0
255 255 255
100 100 100
50 50 50
0 0 0
255 255 255
100 100 100
50 50 50
0 0 0
255 255 255
100 100 100
50 50 50
0 0 0
255 255 255
100 100 100
50 50 50
0 0 0
255 255 255
100 100 100
50 50 50
0 0 0
255 255 255
100 100 100
50 50 50
0 0 0
255 255 255
100 100 100
50 50 50
0 0 0
255 255 255
100 100 100
50 50 50
0 0 0
255 255 255
100 100 100
50 50 50
0 0 0
255 255 255
100 100 100
50 50 50
0 0 0
255 255 255
100 100 100
50 50 50
0 0 0
255 255 255
100 100 100
50 50 50
0 0 0
255 255 255
100 100 100
50 50 50
0 0 0
255 255 255
100 100 100
50 50 50
0 0 0
255 255 255
100 100 100
50 50 50
0 0 0
255 255 255
100 100 100
50 50 50
0 0 0
255 255 255
100 100 100
50 50 50
0 0 0
255 255 255
100 100 100
50 50 50
0 0 0
255 255 255
100 100 100
50 50 50
0 0 0
255 255 255
100 100 100
50 50 50
0 0 0
255 255 255
100 100 100
50 50 50
0 0 0
255 255 255
100 100 100
50 50 50
0 0 0
255 255 255
100 100 100
50 50 50
0 0 0
255 255 255
100 100 100
50 50 50
0 0 0
255 255 255
100 100 100
50 50 50
0 0 0
255 255 255
100 100 100
50 50 50
0 0 0
255 255 255
100 100 100
50 50 50
0 0 0
255 255 255
100 100 100
50 50 50
0 0 0
255 255 255
100 100 100
50 50 50
0 0 0
255 255 255
100 100 100
50 50 50
0 0 0
255 255 255
100 100 100
50 50 50
0 0 0
255 255 255
100 100 100
50 50 50
0 0 0
255 255 255
100 100 100
50 50 50
0 0 0
255 255 255
100 100 100
50 50 50
0 0 0
255 255 255
100 100 100
50 50 50
0 0 0
255 255 255
100 100 100
50 50 50
0 0 0
255 255 255
100 100 100
50 50 50
0 0 0
255 255 255
100 100 100
50 50 50
0 0 0
255 255 255
100 100 100
50 50 50
0 0 0
255 255 255
100 100 100
50 50 50
0 0 0
255 255 255
100 100 100
50 50 50
0 0 0
255 255 255
100 100 100
50 50 50
0 0 0
255 255 255
100 100 100
50 50 50
0 0 0
255 255 255
100 100 100
50 50 50
0 0 0
255 255 255
100 100 100
50 50 50
0 0 0
255 255 255
100 100 100
50 50 50
0 0 0
255 255 255
100 100 100
50 50 50
0 0 0
255 255 255
100 100 100
50 50 50
0 0 0
255 255 255
100 100 100
50 50 50
0 0 0
255 255 255
100 100 100
50 50 50
0 0 0
255 255 255
100 100 100
50 50 50
0 0 0
255 255 255
100 100 100
50 50 50
0 0 0
255 255 255
100 100 100
50 50 50
0 0 0
255 255 255
100 100 100
50 50 50
0 0 0
255 255 255
100 100 100
50 50 50
0 0 0
255 255 255
100 100 100
50 50 50
0 0 0
255 255 255
100 100 100
50 50 50
0 0 0
255 255 255
100 100 100
50 50 50
0 0 0
255 255 255
100 100 100
50 50 50
0 0 0
255 255 255
100 100 100
50 50 50
0 0 0
255 255 255
100 100 100
50 50 50
0 0 0
255 255 255
100 100 100
50 50 50
0 0 0
255 255 255
100 100 100
50 50 50
0 0 0
255 255 255
100 100 100
50 50 50
0 0 0
255 255 255
100 100 100
50 50 50
0 0 0
255 255 255
100 100 100
50 50 50
0 0 0
255 255 255
100 100 100
50 50 50
0 0 0
255 255 255
100 100 100
50 50 50
0 0 0
255 255 255
100 100 100
50 50 50
0 0 0
255 255 255
100 100 100
50 50 50
0 0 0
255 255 255
100 100 100
50 50 50
0 0 0
255 255 255
100 100 100
50 50 50
0 0 0
255 255 255
100 100 100
50 50 50
0 0 0
255 255 255
100 100 100
50 50 50
0 0 0
255 255 255
100 100 100
50 50 50
0 0 0
255 255 255
100 100 100
50 50 50
0 0 0
255 255 255
100 100 100
50 50 50
0 0 0
255 255 255
100 100 100
50 50 50
0 0 0
255 255 255
100 100 100
50 50 50
0 0 0
255 255 255
100 100 100
50 50 50
0 0 0
255 255 255
100 100 100
50 50 50
0 0 0
255 255 255
100 100 100
50 50 50
0 0 0
255 255 255
100 100 100
50 50 50
0 0 0
255 255 255
100 100 100
50 50 50
0 0 0
255 255 255
100 100 100
50 50 50
0 0 0
255 255 255
100 100 100
50 50 50
0 0 0
255 255 255
100 100 100
50 50 50
0 0 0
255 255 255
100 100 100
50 50 50
0 0 0
255 255 255
100 100 100
50 50 50
0 0 0
255 255 255
100 100 100
50 50 50
0 0 0
255 255 255
100 100 100
50 50 50
0 0 0
255 255 255
100 100 100
50 50 50
0 0 0
255 255 255
100 100 100
50 50 50
0 0 0
255 255 255
100 100 100
50 50 50
0 0 0
255 255 255
100 100 100
50 50 50
0 0 0
255 255 255
100 100 100
50 50 50
0 0 0
255 255 255
100 100 100
50 50 50
0 0 0
255 255 255
100 100 100
50 50 50
0 0 0
255 255 255
100 100 100
50 50 50
0 0 0
255 255 255
100 100 100
50 50 50
0 0 0
255 255 255
100 100 100
50 50 50
0 0 0
255 255 255
100 100 100
50 50 50
0 0 0
255 255 255
100 100 100
50 50 50
0 0 0
255 255 255
100 100 100
50 50 50
0 0 0
255 255 255
100 100 100
50 50 50
0 0 0
255 255 255
100 100 100
50 50 50
0 0 0
255 255 255
100 100 100
50 50 50
0 0 0
255 255 255
100 100 100
50 50 50
0 0 0
255 255 255
100 100 100
50 50 50
0 0 0
255 255 255
100 100 100
50 50 50
0 0 0
255 255 255
100 100 100
50 50 50
0 0 0
255 255 255
100 100 100
50 50 50
0 0 0
255 255 255
100 100 100
50 50 50
0 0 0
255 255 255
100 100 100
50 50 50
0 0 0
255 255 255
100 100 100
50 50 50
0 0 0
255 255 255
100 100 100
50 50 50
0 0 0
255 255 255
100 100 100
50 50 50
0 0 0
255 255 255
100 100 100
50 50 50
0 0 0
255 255 255
100 100 100
50 50 50
0 0 0
255 255 255
100 100 100
50 50 50
0 0 0
255 255 255
100 100 100
50 50 50
0 0 0
255 255 255
100 100 100
50 50 50
0 0 0
255 255 255
100 100 100
50 50 50
0 0 0
255 255 255
100 100 100
50 50 50
0 0 0
255 255 255
100 100 100
50 50 50
0 0 0
255 255 255
100 100 100
50 50 50
0 0 0
255 255 255
100 100 100
50 50 50
0 0 0
255 255 255
100 100 100
50 50 50
0 0 0
255 255 255
100 100 100
50 50 50
0 0 0
255 255 255
100 100 100
50 50 50
0 0 0
255 255 255
100 100 100
50 50 50
0 0 0
255 255 255
100 100 100
50 50 50
0 0 0
255 255 255
100 100 100
50 50 50
0 0 0
255 255 255
100 100 100
50 50 50
0 0 0
255 255 255
100 100 100
50 50 50
0 0 0
255 255 255
100 100 100
50 50 50
0 0 0
255 255 255
100 100 100
50 50 50
0 0 0
255 255 255
100 100 100
50 50 50
0 0 0
255 255 255
100 100 100
50 50 50
0 0 0
255 255 255
100 100 100
50 50 50
0 0 0
255 255 255
100 100 100
50 50 50
0 0 0
255 255 255
100 100 100
50 50 50
0 0 0
255 255 255
100 100 100
50 50 50
0 0 0
255 255 255
100 100 100
50 50 50
0 0 0
255 255 255
100 100 100
50 50 50
0 0 0
255 255 255
100 100 100
50 50 50
0 0 0
255 255 255
100 100 100
50 50 50
0 0 0
255 255 255
100 100 100
50 50 50
0 0 0
255 255 255
100 100 100
50 50 50
0 0 0
255 255 255
100 100 100
50 50 50
0 0 0
255 255 255
100 100 100
50 50 50
0 0 0
255 255 255
100 100 100
50 50 50
0 0 0
255 255 255
100 100 100
50 50 50
0 0 0
255 255 255
100 100 100
50 50 50
0 0 0
255 255 255
100 100 100
50 50 50
0 0 0
255 255 255
100 100 100
50 50 50
0 0 0
255 255 255
100 100 100
50 50 50
0 0 0
255 255 255
100 100 100
50 50 50
0 0 0
255 255 255
100 100 100
50 50 50
0 0 0
255 255 255
100 100 100
50 50 50
0 0 0
255 255 255
100 100 100
50 50 50
0 0 0
255 255 255
100 100 100
50 50 50
0 0 0
255 255 255
100 100 100
50 50 50
0 0 0
255 255 255
100 100 100
50 50 50
0 0 0
255 255 255
100 100 100
50 50 50
0 0 0
255 255 255
100 100 100
50 50 50
0 0 0
255 255 255
100 100 100
50 50 50
0 0 0
255 255 255
100 100 100
50 50 50
0 0 0
255 255 255
100 100 100
50 50 50
0 0 0
255 255 255
100 100 100
50 50 50
0 0 0
255 255 255
100 100 100
50 50 50
0 0 0
255 255 255
100 100 100
50 50 50
0 0 0
255 255 255
100 100 100
50 50 50
0 0 0
255 255 255
100 100 100
50 50 50
0 0 0
255 255 255
100 100 100
50 50 50
0 0 0
255 255 255
100 100 100
50 50 50
0 0 0
255 255 255
100 100 100
50 50 50
0 0 0
255 255 255
100 100 100
50 50 50
0 0 0
255 255 255
100 100 100
50 50 50
0 0 0
255 255 255
100 100 100
50 50 50
0 0 0
255 255 255
100 100 100
50 50 50
0 0 0
255 255 255
100 100 100
50 50 50
0 0 0
255 255 255
100 100 100
50 50 50
0 0 0
255 255 255
100 100 100
50 50 50
0 0 0
255 255 255
100 100 100
50 50 50
0 0 0
255 255 255
100 100 100
50 50 50
0 0 0
255 255 255
100 100 100
50 50 50
0 0 0
255 255 255
100 100 100
50 50 50
0 0 0
255 255 255
100 100 100
50 50 50
0 0 0
255 255 255
100 100 100
50 50 50
0 0 0
255 255 255
100 100 100
50 50 50
0 0 0
255 255 255
100 100 100
50 50 50
0 0 0
255 255 255
100 100 100
50 50 50
0 0 0
255 255 255
100 100 100
50 50 50
0 0 0
255 255 255
100 100 100
50 50 50
0 0 0
255 255 255
100 100 100
50 50 50
0 0 0
255 255 255
100 100 100
50 50 50
0 0 0
255 255 255
100 100 100
50 50 50
0 0 0
255 255 255
100 100 100
50 50 50
0 0 0
255 255 255
100 100 100
50 50 50
0 0 0
255 255 255
100 100 100
50 50 50
0 0 0
255 255 255
100 100 100
50 50 50
0 0 0
255 255 255
100 100 100
50 50 50
0 0 0
255 255 255
100 100 100
50 50 50
0 0 0
255 255 255
100 100 100
50 50 50
0 0 0
255 255 255
100 100 100
50 50 50
0 0 0
255 255 255
100 100 100
50 50 50
0 0 0
255 255 255
100 100 100
50 50 50
0 0 0
255 255 255
100 100 100
50 50 50
0 0 0
255 255 255
100 100 100
50 50 50
0 0 0
255 255 255
100 100 100
50 50 50
0 0 0
255 255 255
100 100 100
50 50 50
0 0 0
255 255 255
100 100 100
50 50 50
0 0 0
255 255 255
100 100 100
50 50 50
0 0 0
255 255 255
100 100 100
50 50 50
0 0 0
255 255 255
100 100 100
50 50 50
0 0 0
255 255 255
100 100 100
50 50 50
0 0 0
255 255 255
100 100 100
50 50 50
0 0 0
255 255 255
100 100 100
50 50 50
0 0 0
255 255 255
100 100 100
50 50 50
0 0 0
255 255 255
100 100 100
50 50 50
0 0 0
255 255 255
100 100 100
50 50 50
0 0 0
255 255 255
100 100 100
50 50 50
0 0 0
255 255 255
100 100 100
50 50 50
0 0 0
255 255 255
100 100 100
50 50 50
0 0 0
255 255 255
100 100 100
50 50 50
0 0 0
255 255 255
100 100 100
50 50 50
0 0 0
255 255 255
100 100 100
50 50 50
0 0 0
255 255 255
100 100 100
50 50 50
0 0 0
255 255 255
100 100 100
50 50 50
0 0 0
255 255 255
100 100 100
50 50 50
0 0 0
255 255 255
100 100 100
50 50 50
0 0 0
255 255 255
100 100 100
50 50 50
0 0 0
255 255 255
100 100 100
50 50 50
0 0 0
255 255 255
100 100 100
50 50 50
0 0 0
255 255 255
100 100 100
50 50 50
0 0 0
255 255 255
100 100 100
50 50 50
0 0 0
255 255 255
100 100 100
50 50 50
0 0 0
255 255 255
100 100 100
50 50 50
0 0 0
255 255 255
100 100 100
50 50 50
0 0 0
255 255 255
100 100 100
50 50 50
0 0 0
255 255 255
100 100 100
50 50 50
0 0 0
255 255 255
100 100 100
50 50 50
0 0 0
255 255 255
100 100 100
50 50 50
0 0 0
255 255 255
100 100 100
50 50 50
0 0 0
255 255 255
100 100 100
50 50 50
0 0 0
255 255 255
100 100 100
50 50 50
0 0 0
255 255 255
100 100 100
50 50 50
0 0 0
255 255 255
100 100 100
50 50 50
0 0 0
255 255 255
100 100 100
50 50 50
0 0 0
255 255 255
100 100 100
50 50 50
0 0 0
255 255 255
100 100 100
50 50 50
0 0 0
255 255 255
100 100 100
50 50 50
0 0 0
255 255 255
100 100 100
50 50 50
0 0 0
255 255 255
100 100 100
50 50 50
0 0 0
255 255 255
100 100 100
50 50 50
0 0 0
255 255 255
100 100 100
50 50 50
0 0 0
255 255 255
100 100 100
50 50 50
0 0 0
255 255 255
100 100 100
50 50 50
0 0 0
255 255 255
100 100 100
50 50 50
0 0 0
255 255 255
100 100 100
50 50 50
0 0 0
255 255 255
100 100 100
50 50 50
0 0 0
255 255 255
100 100 100
50 50 50
0 0 0
255 255 255
100 100 100
50 50 50
0 0 0
255 255 255
100 100 100
50 50 50
0 0 0
255 255 255
100 100 100
50 50 50
0 0 0
255 255 255
100 100 100
50 50 50
0 0 0
255 255 255
100 100 100
50 50 50
0 0 0
255 255 255
100 100 100
50 50 50
0 0 0
255 255 255
100 100 100
50 50 50
0 0 0
255 255 255
100 100 100
50 50 50
0 0 0
255 255 255
100 100 100
50 50 50
0 0 0
255 255 255
100 100 100
50 50 50
0 0 0
255 255 255
100 100 100
50 50 50
0 0 0
255 255 255
100 100 100
50 50 50
0 0 0
255 255 255
100 100 100
50 50 50
0 0 0
255 255 255
100 100 100
50 50 50
0 0 0
255 255 255
100 100 100
50 50 50
0 0 0
255 255 255
100 100 100
50 50 50
0 0 0
255 255 255
100 100 100
50 50 50
0 0 0
255 255 255
100 100 100
50 50 50
0 0 0
255 255 255
100 100 100
50 50 50
0 0 0
255 255 255
100 100 100
50 50 50
0 0 0
255 255 255
100 100 100
50 50 50
0 0 0
255 255 255
100 100 100
50 50 50
0 0 0
255 255 255
100 100 100
50 50 50
0 0 0
255 255 255
100 100 100
50 50 50
0 0 0
255 255 255
100 100 100
50 50 50
0 0 0
255 255 255
100 100 100
50 50 50
0 0 0
255 255 255
100 100 100
50 50 50
0 0 0
255 255 255
100 100 100
50 50 50
0 0 0
255 255 255
100 100 100
50 50 50
0 0 0
255 255 255
100 100 100
50 50 50
0 0 0
255 255 255
100 100 100
50 50 50
0 0 0
255 255 255
100 100 100
50 50 50
0 0 0
255 255 255
100 100 100
50 50 50
0 0 0
255 255 255
100 100 100
50 50 50
0 0 0
255 255 255
100 100 100
50 50 50
0 0 0
255 255 255
100 100 100
50 50 50
0 0 0
255 255 255
100 100 100
50 50 50
0 0 0
255 255 255
100 100 100
50 50 50
0 0 0
255 255 255
100 100 100
50 50 50
0 0 0
255 255 255
100 100 100
50 50 50
0 0 0
255 255 255
100 100 100
50 50 50
0 0 0
255 255 255
100 100 100
50 50 50
0 0 0
255 255 255
100 100 100
50 50 50
0 0 0
255 255 255
100 100 100
50 50 50
0 0 0
255 255 255
100 100 100
50 50 50
0 0 0
255 255 255
100 100 100
50 50 50
0 0 0
255 255 255
100 100 100
50 50 50
0 0 0
255 255 255
100 100 100
50 50 50
0 0 0
255 255 255
100 100 100
50 50 50
0 0 0
255 255 255
100 100 100
50 50 50
0 0 0
255 255 255
100 100 100
50 50 50
0 0 0
255 255 255
100 100 100
50 50 50
0 0 0
255 255 255
100 100 100
50 50 50
0 0 0
255 255 255
100 100 100
50 50 50
0 0 0
255 255 255
100 100 100
50 50 50
0 0 0
255 255 255
100 100 100
50 50 50
0 0 0
255 255 255
100 100 100
50 50 50
0 0 0
255 255 255
100 100 100
50 50 50
0 0 0
255 255 255
100 100 100
50 50 50
0 0 0
255 255 255
100 100 100
50 50 50
0 0 0
255 255 255
100 100 100
50 50 50
0 0 0
255 255 255
100 100 100
50 50 50
0 0 0
255 255 255
100 100 100
50 50 50
0 0 0
255 255 255
100 100 100
50 50 50
0 0 0
255 255 255
100 100 100
50 50 50
0 0 0
255 255 255
100 100 100
50 50 50
0 0 0
255 255 255
100 100 100
50 50 50
0 0 0
255 255 255
100 100 100
50 50 50
0 0 0
255 255 255
100 100 100
50 50 50
0 0 0
255 255 255
100 100 100
50 50 50
0 0 0
255 255 255
100 100 100
50 50 50
0 0 0
255 255 255
100 100 100
50 50 50
0 0 0
255 255 255
100 100 100
50 50 50
0 0 0
255 255 255
100 100 100
50 50 50
0 0 0
255 255 255
100 100 100
50 50 50
0 0 0
255 255 255
100 100 100
50 50 50
0 0 0
255 255 255
100 100 100
50 50 50
0 0 0
255 255 255
100 100 100
50 50 50
0 0 0
255 255 255
100 100 100
50 50 50
0 0 0
255 255 255
100 100 100
50 50 50
0 0 0
255 255 255
100 100 100
50 50 50
0 0 0
255 255 255
100 100 100
50 50 50
0 0 0
255 255 255
100 100 100
50 50 50
0 0 0
255 255 255
100 100 100
50 50 50
0 0 0
255 255 255
100 100 100
50 50 50
0 0 0
255 255 255
100 100 100
50 50 50
0 0 0
255 255 255
100 100 100
50 50 50
0 0 0
255 255 255
100 100 100
50 50 50
0 0 0
255 255 255
100 100 100
50 50 50
0 0 0
255 255 255
100 100 100
50 50 50
0 0 0
255 255 255
100 100 100
50 50 50
0 0 0
255 255 255
100 100 100
50 50 50
0 0 0
255 255 255
100 100 100
50 50 50
0 0 0
255 255 255
100 100 100
50 50 50
0 0 0
255 255 255
100 100 100
50 50 50
0 0 0
255 255 255
100 100 100
50 50 50
0 0 0
255 255 255
100 100 100
50 50 50
0 0 0
255 255 255
100 100 100
50 50 50
0 0 0
255 255 255
100 100 100
50 50 50
0 0 0
255 255 255
100 100 100
50 50 50
0 0 0
255 255 255
100 100 100
50 50 50
0 0 0
255 255 255
100 100 100
50 50 50
0 0 0
255 255 255
100 100 100
50 50 50
0 0 0
255 255 255
100 100 100
50 50 50
0 0 0
255 255 255
100 100 100
50 50 50
0 0 0
255 255 255
100 100 100
50 50 50
0 0 0
255 255 255
100 100 100
50 50 50
0 0 0
255 255 255
100 100 100
50 50 50
0 0 0
255 255 255
100 100 100
50 50 50
0 0 0
255 255 255
100 100 100
50 50 50
0 0 0
255 255 255
100 100 100
50 50 50
0 0 0
255 255 255
100 100 100
50 50 50
0 0 0
255 255 255
100 100 100
50 50 50
0 0 0
255 255 255
100 100 100
50 50 50
0 0 0
255 255 255
100 100 100
50 50 50
0 0 0
255 255 255
100 100 100
50 50 50
0 0 0
255 255 255
100 100 100
50 50 50
0 0 0
255 255 255
100 100 100
50 50 50
0 0 0
255 255 255
100 100 100
50 50 50
0 0 0
255 255 255
100 100 100
50 50 50
0 0 0
255 255 255
100 100 100
50 50 50
0 0 0
255 255 255
100 100 100
50 50 50
0 0 0
255 255 255
100 100 100
50 50 50
0 0 0
255 255 255
100 100 100
50 50 50
0 0 0
255 255 255
100 100 100
50 50 50
0 0 0
255 255 255
100 100 100
50 50 50
0 0 0
255 255 255
100 100 100
50 50 50
0 0 0
255 255 255
100 100 100
50 50 50
0 0 0
255 255 255
100 100 100
50 50 50
0 0 0
255 255 255
100 100 100
50 50 50
0 0 0
255 255 255
100 100 100
50 50 50
0 0 0
255 255 255
100 100 100
50 50 50
0 0 0
255 255 255
100 100 100
50 50 50
0 0 0
255 255 255
100 100 100
50 50 50
0 0 0
255 255 255
100 100 100
50 50 50
0 0 0
255 255 255
100 100 100
50 50 50
0 0 0
255 255 255
100 100 100
50 50 50
0 0 0
255 255 255
100 100 100
50 50 50
0 0 0
255 255 255
100 100 100
50 50 50
0 0 0
255 255 255
100 100 100
50 50 50
0 0 0
255 255 255
100 100 100
50 50 50
0 0 0
255 255 255
100 100 100
50 50 50
0 0 0
255 255 255
100 100 100
50 50 50
0 0 0
255 255 255
100 100 100
50 50 50
0 0 0
255 255 255
100 100 100
50 50 50
0 0 0
255 255 255
100 100 100
50 50 50
0 0 0
255 255 255
100 100 100
50 50 50
0 0 0
255 255 255
100 100 100
50 50 50
0 0 0
255 255 255
100 100 100
50 50 50
0 0 0
255 255 255
100 100 100
50 50 50
0 0 0
255 255 255
100 100 100
50 50 50
0 0 0
255 255 255
100 100 100
50 50 50
0 0 0
255 255 255
100 100 100
50 50 50
0 0 0
255 255 255
100 100 100
50 50 50
0 0 0
255 255 255
100 100 100
50 50 50
0 0 0
255 255 255
100 100 100
50 50 50
0 0 0
255 255 255
100 100 100
50 50 50
0 0 0
255 255 255
100 100 100
50 50 50
0 0 0
255 255 255
100 100 100
50 50 50
0 0 0
255 255 255
100 100 100
50 50 50
0 0 0
255 255 255
100 100 100
50 50 50
0 0 0
255 255 255
100 100 100
50 50 50
0 0 0
255 255 255
100 100 100
50 50 50
0 0 0
255 255 255
100 100 100
50 50 50
0 0 0
255 255 255
100 100 100
50 50 50
0 0 0
255 255 255
100 100 100
50 50 50
0 0 0
255 255 255
100 100 100
50 50 50
0 0 0
255 255 255
100 100 100
50 50 50
0 0 0
255 255 255
100 100 100
50 50 50
0 0 0
255 255 255
100 100 100
50 50 50
0 0 0
255 255 255
100 100 100
50 50 50
0 0 0
255 255 255
100 100 100
50 50 50
0 0 0
255 255 255
100 100 100
50 50 50
0 0 0
255 255 255
100 100 100
50 50 50
0 0 0
255 255 255
100 100 100
50 50 50
0 0 0
255 255 255
100 100 100
50 50 50
0 0 0
255 255 255
100 100 100
50 50 50
0 0 0
255 255 255
100 100 100
50 50 50
0 0 0
255 255 255
100 100 100
50 50 50
0 0 0
255 255 255
100 100 100
50 50 50
0 0 0
255 255 255
100 100 100
50 50 50
0 0 0
255 255 255
100 100 100
50 50 50
0 0 0
255 255 255
100 100 100
50 50 50
0 0 0
255 255 255
100 100 100
50 50 50
0 0 0
255 255 255
100 100 100
50 50 50
0 0 0
255 255 255
100 100 100
50 50 50
0 0 0
255 255 255
100 100 100
50 50 50
0 0 0
255 255 255
100 100 100
50 50 50
0 0 0
255 255 255
100 100 100
50 50 50
0 0 0
255 255 255
100 100 100
50 50 50
0 0 0
255 255 255
100 100 100
50 50 50
0 0 0
255 255 255
100 100 100
50 50 50
0 0 0
255 255 255
100 100 100
50 50 50
0 0 0
255 255 255
100 100 100
50 50 50
0 0 0
255 255 255
100 100 100
50 50 50
0 0 0
255 255 255
100 100 100
50 50 50
0 0 0
255 255 255
100 100 100
50 50 50
0 0 0
255 255 255
100 100 100
50 50 50
0 0 0
255 255 255
100 100 100
50 50 50
0 0 0
255 255 255
100 100 100
50 50 50
0 0 0
255 255 255
100 100 100
50 50 50
0 0 0
255 255 255
100 100 100
50 50 50
0 0 0
255 255 255
100 100 100
50 50 50
0 0 0
255 255 255
100 100 100
50 50 50
0 0 0
255 255 255
100 100 100
50 50 50
0 0 0
255 255 255
100 100 100
50 50 50
0 0 0
255 255 255
100 100 100
50 50 50
0 0 0
255 255 255
100 100 100
50 50 50
0 0 0
255 255 255
100 100 100
50 50 50
0 0 0
255 255 255
100 100 100
50 50 50
0 0 0
255 255 255
100 100 100
50 50 50
0 0 0
255 255 255
100 100 100
50 50 50
0 0 0
255 255 255
100 100 100
50 50 50
0 0 0
255 255 255
100 100 100
50 50 50
0 0 0
255 255 255
100 100 100
50 50 50
0 0 0
255 255 255
100 100 100
50 50 50
0 0 0
255 255 255
100 100 100
50 50 50
0 0 0
255 255 255
100 100 100
50 50 50
0 0 0
255 255 255
100 100 100
50 50 50
0 0 0
255 255 255
100 100 100
50 50 50
0 0 0
255 255 255
100 100 100
50 50 50
0 0 0
255 255 255
100 100 100
50 50 50
0 0 0
255 255 255
100 100 100
50 50 50
0 0 0
255 255 255
100 100 100
50 50 50
0 0 0
255 255 255
100 100 100
50 50 50
0 0 0
255 255 255
100 100 100
50 50 50
0 0 0
255 255 255
100 100 100
50 50 50
0 0 0
255 255 255
100 100 100
50 50 50
0 0 0
255 255 255
100 100 100
50 50 50
0 0 0
255 255 255
100 100 100
50 50 50
0 0 0
255 255 255
100 100 100
50 50 50
0 0 0
255 255 255
100 100 100
50 50 50
0 0 0
255 255 255
100 100 100
50 50 50
0 0 0
255 255 255
100 100 100
50 50 50
0 0 0
255 255 255
100 100 100
50 50 50
0 0 0
255 255 255
100 100 100
50 50 50
0 0 0
255 255 255
100 100 100
50 50 50
0 0 0
255 255 255
100 100 100
50 50 50
0 0 0
255 255 255
100 100 100
50 50 50
0 0 0
255 255 255
100 100 100
50 50 50
0 0 0
255 255 255
100 100 100
50 50 50
0 0 0
255 255 255
100 100 100
50 50 50
0 0 0
255 255 255
100 100 100
50 50 50
0 0 0
255 255 255
100 100 100
50 50 50
0 0 0
255 255 255
100 100 100
50 50 50
0 0 0
255 255 255
100 100 100
50 50 50
0 0 0
255 255 255
100 100 100
50 50 50
0 0 0
255 255 255
100 100 100
50 50 50
0 0 0
255 255 255
100 100 100
50 50 50
0 0 0
255 255 255
100 100 100
50 50 50
0 0 0
255 255 255
100 100 100
50 50 50
0 0 0
255 255 255
100 100 100
50 50 50
0 0 0
255 255 255
100 100 100
50 50 50
0 0 0
255 255 255
100 100 100
50 50 50
0 0 0
255 255 255
100 100 100
50 50 50
0 0 0
255 255 255
100 100 100
50 50 50
0 0 0
255 255 255
100 100 100
50 50 50
0 0 0
255 255 255
100 100 100
50 50 50
0 0 0
255 255 255
100 100 100
50 50 50
0 0 0
255 255 255
100 100 100
50 50 50
0 0 0
255 255 255
100 100 100
50 50 50
0 0 0
255 255 255
100 100 100
50 50 50
0 0 0
255 255 255
100 100 100
50 50 50
0 0 0
255 255 255
100 100 100
50 50 50
0 0 0
255 255 255
100 100 100
50 50 50
0 0 0
255 255 255
100 100 100
50 50 50
0 0 0
255 255 255
100 100 100
50 50 50
0 0 0
255 255 255
100 100 100
50 50 50
0 0 0
255 255 255
100 100 100
50 50 50
0 0 0
255 255 255
100 100 100
50 50 50
0 0 0
255 255 255
100 100 100
50 50 50
0 0 0
255 255 255
100 100 100
50 50 50
0 0 0
255 255 255
100 100 100
50 50 50
0 0 0
255 255 255
100 100 100
50 50 50
0 0 0
255 255 255
100 100 100
50 50 50
0 0 0
255 255 255
100 100 100
50 50 50
0 0 0
255 255 255
100 100 100
50 50 50
0 0 0
255 255 255
100 100 100
50 50 50
0 0 0
255 255 255
100 100 100
50 50 50
0 0 0
255 255 255
100 100 100
50 50 50
0 0 0
255 255 255
100 100 100
50 50 50
0 0 0
255 255 255
100 100 100
50 50 50
0 0 0
255 255 255
100 100 100
50 50 50
0 0 0
255 255 255
100 100 100
50 50 50
0 0 0
255 255 255
100 100 100
50 50 50
0 0 0
255 255 255
100 100 100
50 50 50
0 0 0
255 255 255
100 100 100
50 50 50
0 0 0
255 255 255
100 100 100
50 50 50
0 0 0
255 255 255
100 100 100
50 50 50
0 0 0
255 255 255
100 100 100
50 50 50
0 0 0
255 255 255
100 100 100
50 50 50
0 0 0
255 255 255
100 100 100
50 50 50
0 0 0
255 255 255
100 100 100
50 50 50
0 0 0
255 255 255
100 100 100
50 50 50
0 0 0
255 255 255
100 100 100
50 50 50
0 0 0
255 255 255
100 100 100
50 50 50
0 0 0
255 255 255
100 100 100
50 50 50
0 0 0
255 255 255
100 100 100
50 50 50
0 0 0
255 255 255
100 100 100
50 50 50
0 0 0
255 255 255
100 100 100
50 50 50
0 0 0
255 255 255
100 100 100
50 50 50
0 0 0
255 255 255
100 100 100
50 50 50
0 0 0
255 255 255
100 100 100
50 50 50
0 0 0
255 255 255
100 100 100
50 50 50
0 0 0
255 255 255
100 100 100
50 50 50
0 0 0
255 255 255
100 100 100
50 50 50
0 0 0
255 255 255
100 100 100
50 50 50
0 0 0
255 255 255
100 100 100
50 50 50
0 0 0
255 255 255
100 100 100
50 50 50
0 0 0
255 255 255
100 100 100
50 50 50
0 0 0
255 255 255
100 100 100
50 50 50
0 0 0
255 255 255
100 100 100
50 50 50
0 0 0
255 255 255
100 100 100
50 50 50
0 0 0
255 255 255
100 100 100
50 50 50
0 0 0
255 255 255
100 100 100
50 50 50
0 0 0
255 255 255
100 100 100
50 50 50
0 0 0
255 255 255
100 100 100
50 50 50
0 0 0
255 255 255
100 100 100
50 50 50
0 0 0
255 255 255
100 100 100
50 50 50
0 0 0
255 255 255
100 100 100
50 50 50
0 0 0
255 255 255
100 100 100
50 50 50
0 0 0
255 255 255
100 100 100
50 50 50
0 0 0
255 255 255
100 100 100
50 50 50
0 0 0
255 255 255
100 100 100
50 50 50
0 0 0
255 255 255
100 100 100
50 50 50
0 0 0
255 255 255
100 100 100
50 50 50
0 0 0
255 255 255
100 100 100
50 50 50
0 0 0
255 255 255
100 100 100
50 50 50
0 0 0
255 255 255
100 100 100
50 50 50
0 0 0
255 255 255
100 100 100
50 50 50
0 0 0
255 255 255
100 100 100
50 50 50
0 0 0
255 255 255
100 100 100
50 50 50
0 0 0
255 255 255
100 100 100
50 50 50
0 0 0
255 255 255
100 100 100
50 50 50
0 0 0
255 255 255
100 100 100
50 50 50
0 0 0
255 255 255
100 100 100
50 50 50
0 0 0
255 255 255
100 100 100
50 50 50
0 0 0
255 255 255
100 100 100
50 50 50
0 0 0
255 255 255
100 100 100
50 50 50
0 0 0
255 255 255
100 100 100
50 50 50
0 0 0
255 255 255
100 100 100
50 50 50
0 0 0
255 255 255
100 100 100
50 50 50
0 0 0
255 255 255
100 100 100
50 50 50
0 0 0
255 255 255
100 100 100
50 50 50
0 0 0
255 255 255
100 100 100
50 50 50
0 0 0
255 255 255
100 100 100
50 50 50
0 0 0
255 255 255
100 100 100
50 50 50
0 0 0
255 255 255
100 100 100
50 50 50
0 0 0
255 255 255
100 100 100
50 50 50
0 0 0
255 255 255
100 100 100
50 50 50
0 0 0
255 255 255
100 100 100
50 50 50
0 0 0
255 255 255
100 100 100
50 50 50
0 0 0
255 255 255
100 100 100
50 50 50
0 0 0
255 255 255
100 100 100
50 50 50
0 0 0
255 255 255
100 100 100
50 50 50
0 0 0
255 255 255
100 100 100
50 50 50
0 0 0
255 255 255
100 100 100
50 50 50
0 0 0
255 255 255
100 100 100
50 50 50
0 0 0
255 255 255
100 100 100
50 50 50
0 0 0
255 255 255
100 100 100
50 50 50
0 0 0
255 255 255
100 100 100
50 50 50
0 0 0
255 255 255
100 100 100
50 50 50
0 0 0
255 255 255
100 100 100
50 50 50
0 0 0
255 255 255
100 100 100
50 50 50
0 0 0
255 255 255
100 100 100
50 50 50
0 0 0
255 255 255
100 100 100
50 50 50
0 0 0
255 255 255
100 100 100
50 50 50
0 0 0
255 255 255
100 100 100
50 50 50
0 0 0
255 255 255
100 100 100
50 50 50
0 0 0
255 255 255
100 100 100
50 50 50
0 0 0
255 255 255
100 100 100
50 50 50
0 0 0
255 255 255
100 100 100
50 50 50
0 0 0
255 255 255
100 100 100
50 50 50
0 0 0
255 255 255
100 100 100
50 50 50
0 0 0
255 255 255
100 100 100
50 50 50
0 0 0
255 255 255
100 100 100
50 50 50
0 0 0
255 255 255
100 100 100
50 50 50
0 0 0
255 255 255
100 100 100
50 50 50
0 0 0
255 255 255
100 100 100
50 50 50
0 0 0
255 255 255
100 100 100
50 50 50
0 0 0
255 255 255
100 100 100
50 50 50
0 0 0
255 255 255
100 100 100
50 50 50
0 0 0
255 255 255
100 100 100
50 50 50
0 0 0
255 255 255
100 100 100
50 50 50
0 0 0
255 255 255
100 100 100
50 50 50
0 0 0
255 255 255
100 100 100
50 50 50
0 0 0
255 255 255
100 100 100
50 50 50
0 0 0
255 255 255
100 100 100
50 50 50
0 0 0
255 255 255
100 100 100
50 50 50
0 0 0
255 255 255
100 100 100
50 50 50
0 0 0
255 255 255
100 100 100
50 50 50
0 0 0
255 255 255
100 100 100
50 50 50
0 0 0
255 255 255
100 100 100
50 50 50
0 0 0
255 255 255
100 100 100
50 50 50
0 0 0
255 255 255
100 100 100
50 50 50
0 0 0
255 255 255
100 100 100
50 50 50
0 0 0
255 255 255
100 100 100
50 50 50
0 0 0
255 255 255
100 100 100
50 50 50
0 0 0
255 255 255
100 100 100
50 50 50
0 0 0
255 255 255
100 100 100
50 50 50
0 0 0
255 255 255
100 100 100
50 50 50
0 0 0
255 255 255
100 100 100
50 50 50
0 0 0
255 255 255
100 100 100
50 50 50
0 0 0
255 255 255
100 100 100
50 50 50
0 0 0
255 255 255
100 100 100
50 50 50
0 0 0
255 255 255
100 100 100
50 50 50
0 0 0
255 255 255
100 100 100
50 50 50
0 0 0
255 255 255
100 100 100
50 50 50
0 0 0
255 255 255
100 100 100
50 50 50
0 0 0
255 255 255
100 100 100
50 50 50
0 0 0
255 255 255
100 100 100
50 50 50
0 0 0
255 255 255
100 100 100
50 50 50
0 0 0
255 255 255
100 100 100
50 50 50
0 0 0
255 255 255
100 100 100
50 50 50
0 0 0
255 255 255
100 100 100
50 50 50
0 0 0
255 255 255
100 100 100
50 50 50
0 0 0
255 255 255
100 100 100
50 50 50
0 0 0
255 255 255
100 100 100
50 50 50
0 0 0
255 255 255
100 100 100
50 50 50
0 0 0
255 255 255
100 100 100
50 50 50
0 0 0
255 255 255
100 100 100
50 50 50
0 0 0
255 255 255
100 100 100
50 50 50
0 0 0
255 255 255
100 100 100
50 50 50
0 0 0
255 255 255
100 100 100
50 50 50
0 0 0
255 255 255
100 100 100
50 50 50
0 0 0
255 255 255
100 100 100
50 50 50
0 0 0
255 255 255
100 100 100
50 50 50
0 0 0
255 255 255
100 100 100
50 50 50
0 0 0
255 255 255
100 100 100
50 50 50
0 0 0
255 255 255
100 100 100
50 50 50
0 0 0
255 255 255
100 100 100
50 50 50
0 0 0
255 255 255
100 100 100
50 50 50
0 0 0
255 255 255
100 100 100
50 50 50
0 0 0
255 255 255
100 100 100
50 50 50
0 0 0
255 255 255
100 100 100
50 50 50
0 0 0
255 255 255
100 100 100
50 50 50
0 0 0
255 255 255
100 100 100
50 50 50
0 0 0
255 255 255
100 100 100
50 50 50
0 0 0
255 255 255
100 100 100
50 50 50
0 0 0
255 255 255
100 100 100
50 50 50
0 0 0
255 255 255
100 100 100
50 50 50
0 0 0
255 255 255
100 100 100
50 50 50
0 0 0
255 255 255
100 100 100
50 50 50
0 0 0
255 255 255
100 100 100
50 50 50
0 0 0
255 255 255
100 100 100
50 50 50
0 0 0
255 255 255
100 100 100
50 50 50
0 0 0
255 255 255
100 100 100
50 50 50
0 0 0
255 255 255
100 100 100
50 50 50
0 0 0
255 255 255
100 100 100
50 50 50
0 0 0
255 255 255
100 100 100
50 50 50
0 0 0
255 255 255
100 100 100
50 50 50
0 0 0
255 255 255
100 100 100
50 50 50
0 0 0
255 255 255
100 100 100
50 50 50
0 0 0
255 255 255
100 100 100
50 50 50
0 0 0
255 255 255
100 100 100
50 50 50
0 0 0
255 255 255
100 100 100
50 50 50
0 0 0
255 255 255
100 100 100
50 50 50
0 0 0
255 255 255
100 100 100
50 50 50
0 0 0
255 255 255
100 100 100
50 50 50
0 0 0
255 255 255
100 100 100
50 50 50
0 0 0
255 255 255
100 100 100
50 50 50
0 0 0
255 255 255
100 100 100
50 50 50
0 0 0
255 255 255
100 100 100
50 50 50
0 0 0
255 255 255
100 100 100
50 50 50
0 0 0
255 255 255
100 100 100
50 50 50
0 0 0
255 255 255
100 100 100
50 50 50
0 0 0
255 255 255
100 100 100
50 50 50
0 0 0
255 255 255
100 100 100
50 50 50
0 0 0
255 255 255
100 100 100
50 50 50
0 0 0
255 255 255
100 100 100
50 50 50
0 0 0
255 255 255
100 100 100
50 50 50
0 0 0
255 255 255
100 100 100
50 50 50
0 0 0
255 255 255
100 100 100
50 50 50
0 0 0
255 255 255
100 100 100
50 50 50
0 0 0
255 255 255
100 100 100
50 50 50
0 0 0
255 255 255
100 100 100
50 50 50
0 0 0
255 255 255
100 100 100
50 50 50
0 0 0
255 255 255
100 100 100
50 50 50
0 0 0
255 255 255
100 100 100
50 50 50
0 0 0
255 255 255
100 100 100
50 50 50
0 0 0
255 255 255
100 100 100
50 50 50
0 0 0
255 255 255
100 100 100
50 50 50
0 0 0
255 255 255
100 100 100
50 50 50
0 0 0
255 255 255
100 100 100
50 50 50
0 0 0
255 255 255
100 100 100
50 50 50
0 0 0
255 255 255
100 100 100
50 50 50
0 0 0
255 255 255
100 100 100
50 50 50
0 0 0
255 255 255
100 100 100
50 50 50
0 0 0
255 255 255
100 100 100
50 50 50
0 0 0
255 255 255
100 100 100
50 50 50
0 0 0
255 255 255
100 100 100
50 50 50
0 0 0
255 255 255
100 100 100
50 50 50
0 0 0
255 255 255
100 100 100
50 50 50
0 0 0
255 255 255
100 100 100
50 50 50
0 0 0
255 255 255
100 100 100
50 50 50
0 0 0
255 255 255
100 100 100
50 50 50
0 0 0
255 255 255
100 100 100
50 50 50
0 0 0
255 255 255
100 100 100
50 50 50
0 0 0
255 255 255
100 100 100
50 50 50
0 0 0
255 255 255
100 100 100
50 50 50
0 0 0
255 255 255
100 100 100
50 50 50
0 0 0
255 255 255
100 100 100
50 50 50
0 0 0
255 255 255
100 100 100
50 50 50
0 0 0
255 255 255
100 100 100
50 50 50
0 0 0
255 255 255
100 100 100
50 50 50
0 0 0
255 255 255
100 100 100
50 50 50
0 0 0
255 255 255
100 100 100
50 50 50
0 0 0
255 255 255
100 100 100
50 50 50
0 0 0
255 255 255
100 100 100
50 50 50
0 0 0
255 255 255
100 100 100
50 50 50
0 0 0
255 255 255
100 100 100
50 50 50
0 0 0
255 255 255
100 100 100
50 50 50
0 0 0
255 255 255
100 100 100
50 50 50
0 0 0
255 255 255
100 100 100
50 50 50
0 0 0
255 255 255
100 100 100
50 50 50
0 0 0
255 255 255
100 100 100
50 50 50
0 0 0
255 255 255
100 100 100
50 50 50
0 0 0
255 255 255
100 100 100
50 50 50
0 0 0
255 255 255
100 100 100
50 50 50
0 0 0
255 255 255
100 100 100
50 50 50
0 0 0
255 255 255
100 100 100
50 50 50
0 0 0
255 255 255
100 100 100
50 50 50
0 0 0
255 255 255
100 100 100
50 50 50
0 0 0
255 255 255
100 100 100
50 50 50
0 0 0
255 255 255
100 100 100
50 50 50
0 0 0
255 255 255
100 100 100
50 50 50
0 0 0
255 255 255
100 100 100
50 50 50
0 0 0
255 255 255
100 100 100
50 50 50
0 0 0
255 255 255
100 100 100
50 50 50
0 0 0
255 255 255
100 100 100
50 50 50
0 0 0
255 255 255
100 100 100
50 50 50
0 0 0
255 255 255
100 100 100
50 50 50
0 0 0
255 255 255
100 100 100
50 50 50
0 0 0
255 255 255
100 100 100
50 50 50
0 0 0
255 255 255
100 100 100
50 50 50
0 0 0
255 255 255
100 100 100
50 50 50
0 0 0
255 255 255
100 100 100
50 50 50
0 0 0
255 255 255
100 100 100
50 50 50
0 0 0
255 255 255
100 100 100
50 50 50
0 0 0
255 255 255
100 100 100
50 50 50
0 0 0
255 255 255
100 100 100
50 50 50
0 0 0
255 255 255
100 100 100
50 50 50
0 0 0
255 255 255
100 100 100
50 50 50
0 0 0
255 255 255
100 100 100
50 50 50
0 0 0
255 255 255
100 100 100
50 50 50
0 0 0
255 255 255
100 100 100
50 50 50
0 0 0
255 255 255
100 100 100
50 50 50
0 0 0
255 255 255
100 100 100
50 50 50
0 0 0
255 255 255
100 100 100
50 50 50
0 0 0
255 255 255
100 100 100
50 50 50
0 0 0
255 255 255
100 100 100
50 50 50
0 0 0
255 255 255
100 100 100
50 50 50
0 0 0
255 255 255
100 100 100
50 50 50
0 0 0
255 255 255
100 100 100
50 50 50
0 0 0
255 255 255
100 100 100
50 50 50
0 0 0
255 255 255
100 100 100
50 50 50
0 0 0
255 255 255
100 100 100
50 50 50
0 0 0
255 255 255
100 100 100
50 50 50
0 0 0
255 255 255
100 100 100
50 50 50
0 0 0
255 255 255
100 100 100
50 50 50
0 0 0
255 255 255
100 100 100
50 50 50
0 0 0
255 255 255
100 100 100
50 50 50
0 0 0
255 255 255
100 100 100
50 50 50
0 0 0
255 255 255
100 100 100
50 50 50
0 0 0
255 255 255
100 100 100
50 50 50
0 0 0
255 255 255
100 100 100
50 50 50
0 0 0
255 255 255
100 100 100
50 50 50
0 0 0
255 255 255
100 100 100
50 50 50
0 0 0
255 255 255
100 100 100
50 50 50
0 0 0
255 255 255
100 100 100
50 50 50
0 0 0
255 255 255
100 100 100
50 50 50
0 0 0
255 255 255
100 100 100
50 50 50
0 0 0
255 255 255
100 100 100
50 50 50
0 0 0
255 255 255
100 100 100
50 50 50
0 0 0
255 255 255
100 100 100
50 50 50
0 0 0
255 255 255
100 100 100
50 50 50
0 0 0
255 255 255
100 100 100
50 50 50
0 0 0
255 255 255
100 100 100
50 50 50
0 0 0
255 255 255
100 100 100
50 50 50
0 0 0
255 255 255
100 100 100
50 50 50
0 0 0
255 255 255
100 100 100
50 50 50
0 0 0
255 255 255
100 100 100
50 50 50
0 0 0
255 255 255
100 100 100
50 50 50
0 0 0
255 255 255
100 100 100
50 50 50
0 0 0
255 255 255
100 100 100
50 50 50
0 0 0
255 255 255
100 100 100
50 50 50
0 0 0
255 255 255
100 100 100
50 50 50
0 0 0
255 255 255
100 100 100
50 50 50
0 0 0
255 255 255
100 100 100
50 50 50
0 0 0
255 255 255
100 100 100
50 50 50
0 0 0
255 255 255
100 100 100
50 50 50
0 0 0
255 255 255
100 100 100
50 50 50
0 0 0
255 255 255
100 100 100
50 50 50
0 0 0
255 255 255
100 100 100
50 50 50
0 0 0
255 255 255
100 100 100
50 50 50
0 0 0
255 255 255
100 100 100
50 50 50
0 0 0
255 255 255
100 100 100
50 50 50
0 0 0
255 255 255
100 100 100
50 50 50
0 0 0
255 255 255
100 100 100
50 50 50
0 0 0
255 255 255
100 100 100
50 50 50
0 0 0
255 255 255
100 100 100
50 50 50
0 0 0
255 255 255
100 100 100
50 50 50
0 0 0
255 255 255
100 100 100
50 50 50
0 0 0
255 255 255
100 100 100
50 50 50
0 0 0
255 255 255
100 100 100
50 50 50
0 0 0
255 255 255
100 100 100
50 50 50
0 0 0
255 255 255
100 100 100
50 50 50
0 0 0
255 255 255
100 100 100
50 50 50
0 0 0
255 255 255
100 100 100
50 50 50
0 0 0
255 255 255
100 100 100
50 50 50
0 0 0
255 255 255
100 100 100
50 50 50
0 0 0
255 255 255
100 100 100
50 50 50
0 0 0
255 255 255
100 100 100
50 50 50
0 0 0
255 255 255
100 100 100
50 50 50
0 0 0
255 255 255
100 100 100
50 50 50
0 0 0
255 255 255
100 100 100
50 50 50
0 0 0
255 255 255
100 100 100
50 50 50
0 0 0
255 255 255
100 100 100
50 50 50
0 0 0
255 255 255
100 100 100
50 50 50
0 0 0
255 255 255
100 100 100
50 50 50
0 0 0
255 255 255
100 100 100
50 50 50
0 0 0
255 255 255
100 100 100
50 50 50
0 0 0
255 255 255
100 100 100
50 50 50
0 0 0
255 255 255
100 100 100
50 50 50
0 0 0
255 255 255
100 100 100
50 50 50
0 0 0
255 255 255
100 100 100
50 50 50
0 0 0
255 255 255
100 100 100
50 50 50
0 0 0
255 255 255
100 100 100
50 50 50
0 0 0
255 255 255
100 100 100
50 50 50
0 0 0
255 255 255
100 100 100
50 50 50
0 0 0
255 255 255
100 100 100
50 50 50
0 0 0
255 255 255
100 100 100
50 50 50
0 0 0
255 255 255
100 100 100
50 50 50
0 0 0
255 255 255
100 100 100
50 50 50
0 0 0
255 255 255
100 100 100
50 50 50
0 0 0
255 255 255
100 100 100
50 50 50
0 0 0
255 255 255
100 100 100
50 50 50
0 0 0
255 255 255
100 100 100
50 50 50
0 0 0
255 255 255
100 100 100
50 50 50
0 0 0
255 255 255
100 100 100
50 50 50
0 0 0
255 255 255
100 100 100
50 50 50
0 0 0
255 255 255
100 100 100
50 50 50
0 0 0
255 255 255
100 100 100
50 50 50
0 0 0
255 255 255
100 100 100
50 50 50
0 0 0
255 255 255
100 100 100
50 50 50
0 0 0
255 255 255
100 100 100
50 50 50
0 0 0
255 255 255
100 100 100
50 50 50
0 0 0
255 255 255
100 100 100
50 50 50
0 0 0
255 255 255
100 100 100
50 50 50
0 0 0
255 255 255
100 100 100
50 50 50
0 0 0
255 255 255
100 100 100
50 50 50
0 0 0
255 255 255
100 100 100
50 50 50
0 0 0
255 255 255
100 100 100
50 50 50
0 0 0
255 255 255
100 100 100
50 50 50
0 0 0
255 255 255
100 100 100
50 50 50
0 0 0
255 255 255
100 100 100
50 50 50
0 0 0
255 255 255
100 100 100
50 50 50
0 0 0
255 255 255
100 100 100
50 50 50
0 0 0
255 255 255
100 100 100
50 50 50
0 0 0
255 255 255
100 100 100
50 50 50
0 0 0
255 255 255
100 100 100
50 50 50
0 0 0
255 255 255
100 100 100
50 50 50
0 0 0
255 255 255
100 100 100
50 50 50
0 0 0
255 255 255
100 100 100
50 50 50
0 0 0
255 255 255
100 100 100
50 50 50
0 0 0
255 255 255
100 100 100
50 50 50
0 0 0
255 255 255
100 100 100
50 50 50
0 0 0
255 255 255
100 100 100
50 50 50
0 0 0
255 255 255
100 100 100
50 50 50
0 0 0
255 255 255
100 100 100
50 50 50
0 0 0
255 255 255
100 100 100
50 50 50
0 0 0
255 255 255
100 100 100
50 50 50
0 0 0
255 255 255
100 100 100
50 50 50
0 0 0
255 255 255
100 100 100
50 50 50
0 0 0
255 255 255
100 100 100
50 50 50
0 0 0
255 255 255
100 100 100
50 50 50
0 0 0
255 255 255
100 100 100
50 50 50
0 0 0
255 255 255
100 100 100
50 50 50
0 0 0
255 255 255
100 100 100
50 50 50
0 0 0
255 255 255
100 100 100
50 50 50
0 0 0
255 255 255
100 100 100
50 50 50
0 0 0
255 255 255
100 100 100
50 50 50
0 0 0
255 255 255
100 100 100
50 50 50
0 0 0
255 255 255
100 100 100
50 50 50
0 0 0
255 255 255
100 100 100
50 50 50
0 0 0
255 255 255
100 100 100
50 50 50
0 0 0
255 255 255
100 100 100
50 50 50
0 0 0
255 255 255
100 100 100
50 50 50
0 0 0
255 255 255
100 100 100
50 50 50
0 0 0
255 255 255
100 100 100
50 50 50
0 0 0
255 255 255
100 100 100
50 50 50
0 0 0
255 255 255
100 100 100
50 50 50
0 0 0
255 255 255
100 100 100
50 50 50
0 0 0
255 255 255
100 100 100
50 50 50
0 0 0
255 255 255
100 100 100
50 50 50
0 0 0
255 255 255
100 100 100
50 50 50
0 0 0
255 255 255
100 100 100
50 50 50
0 0 0
255 255 255
100 100 100
50 50 50
0 0 0
255 255 255
100 100 100
50 50 50
0 0 0
255 255 255
100 100 100
50 50 50
0 0 0
255 255 255
100 100 100
50 50 50
0 0 0
255 255 255
100 100 100
50 50 50
0 0 0
255 255 255
100 100 100
50 50 50
0 0 0
255 255 255
100 100 100
50 50 50
0 0 0
255 255 255
100 100 100
50 50 50
0 0 0
255 255 255
100 100 100
50 50 50
0 0 0
255 255 255
100 100 100
50 50 50
0 0 0
255 255 255
100 100 100
50 50 50
0 0 0
255 255 255
100 100 100
50 50 50
0 0 0
255 255 255
100 100 100
50 50 50
0 0 0
255 255 255
100 100 100
50 50 50
0 0 0
255 255 255
100 100 100
50 50 50
0 0 0
255 255 255
100 100 100
50 50 50
0 0 0
255 255 255
100 100 100
50 50 50
0 0 0
255 255 255
100 100 100
50 50 50
0 0 0
255 255 255
100 100 100
50 50 50
0 0 0
255 255 255
100 100 100
50 50 50
0 0 0
255 255 255
100 100 100
50 50 50
0 0 0
255 255 255
100 100 100
50 50 50
0 0 0
255 255 255
100 100 100
50 50 50
0 0 0
255 255 255
100 100 100
50 50 50
0 0 0
255 255 255
100 100 100
50 50 50
0 0 0
255 255 255
100 100 100
50 50 50
0 0 0
255 255 255
100 100 100
50 50 50
0 0 0
255 255 255
100 100 100
50 50 50
0 0 0
255 255 255
100 100 100
50 50 50
0 0 0
255 255 255
100 100 100
50 50 50
0 0 0
255 255 255
100 100 100
50 50 50
0 0 0
255 255 255
100 100 100
50 50 50
0 0 0
255 255 255
100 100 100
50 50 50
0 0 0
255 255 255
100 100 100
50 50 50
0 0 0
255 255 255
100 100 100
50 50 50
0 0 0
255 255 255
100 100 100
50 50 50
0 0 0
255 255 255
100 100 100
50 50 50
0 0 0
255 255 255
100 100 100
50 50 50
0 0 0
255 255 255
100 100 100
50 50 50
0 0 0
255 255 255
100 100 100
50 50 50
0 0 0
255 255 255
100 100 100
50 50 50
0 0 0
255 255 255
100 100 100
50 50 50
0 0 0
255 255 255
100 100 100
50 50 50
0 0 0
255 255 255
100 100 100
50 50 50
0 0 0
255 255 255
100 100 100
50 50 50
0 0 0
255 255 255
100 100 100
50 50 50
0 0 0
255 255 255
100 100 100
50 50 50
0 0 0
255 255 255
100 100 100
50 50 50
0 0 0
255 255 255
100 100 100
50 50 50
0 0 0
255 255 255
100 100 100
50 50 50
0 0 0
255 255 255
100 100 100
50 50 50
