P3
5 5
255
0 0 0
0 0 0
0 0 0
0 0 0
0 0 0
100 100 100
101 100 100
100 100 100
100 100 100
100 100 100
50 50 50
50 50 50
50 50 50
50 50 50
50 50 50
100 100 100
100 100 100
100 100 100
100 100 100
100 100 100
255 255 255
255 255 255
255 255 255
255 255 255
255 255 255
