P3
2 2
255
0 0 0
100 100 100
3 3 3
255 255 255
